<svg xmlns="http://www.w3.org/2000/svg" width="603" height="95" viewBox="0 0 603 95"><defs><style>.a{fill:#fff;}</style></defs><g transform="translate(-60 -6962)"><rect class="a" width="603" height="95" rx="16" transform="translate(60 6962)"/><path class="a" d="M17.507,11.038V9.566H2.563V31.323H17.477V29.866H4.14V20.945H15.914V19.58H4.14V11.038Zm22.045,4.536a6.313,6.313,0,0,0-3.535.956A5.7,5.7,0,0,0,33.878,19a4.978,4.978,0,0,0-5.1-3.414,5.911,5.911,0,0,0-3.277.91,6.264,6.264,0,0,0-2.185,2.4V15.938H21.8V31.323h1.517V23.4A6.959,6.959,0,0,1,24.8,18.791a4.692,4.692,0,0,1,3.763-1.775,3.871,3.871,0,0,1,3.156,1.35A5.675,5.675,0,0,1,32.831,22.1v9.194h1.517V22.842a6.136,6.136,0,0,1,1.426-4.2A4.578,4.578,0,0,1,39.37,17a4.245,4.245,0,0,1,3.353,1.35,5.454,5.454,0,0,1,1.183,3.732v9.194h1.517V21.962a6.668,6.668,0,0,0-1.593-4.734,5.669,5.669,0,0,0-4.354-1.7ZM57.121,31.7a8.05,8.05,0,0,0,3.96-.956,6.786,6.786,0,0,0,2.685-2.67v3.262h1.517V15.954H63.767v3.232a7.274,7.274,0,0,0-2.716-2.625,7.951,7.951,0,0,0-3.945-.956,7.526,7.526,0,0,0-5.629,2.306,7.909,7.909,0,0,0-2.23,5.735,8,8,0,0,0,2.23,5.765,7.45,7.45,0,0,0,5.614,2.321Zm.137-1.381A6.22,6.22,0,0,1,52.6,28.44a6.51,6.51,0,0,1-1.836-4.749,6.56,6.56,0,0,1,1.821-4.749,6.593,6.593,0,0,1,9.285.03,6.478,6.478,0,0,1,1.912,4.734A6.478,6.478,0,0,1,61.87,28.44a6.233,6.233,0,0,1-4.612,1.927ZM71.186,12.676a1.243,1.243,0,0,0,1.244-1.244,1.084,1.084,0,0,0-.364-.819,1.323,1.323,0,0,0-1.79,0,1.125,1.125,0,0,0-.364.85,1.225,1.225,0,0,0,.364.9,1.191,1.191,0,0,0,.88.364Zm-.774,18.692h1.517V15.984H70.412Zm6.676-.046h1.517V8.641H77.088Z" transform="translate(79.346 6989.313)"/></g></svg>