<svg xmlns="http://www.w3.org/2000/svg" width="35.012" height="33.48" viewBox="0 0 35.012 33.48"><defs><style>.a{fill:#8ff5ff;}</style></defs><g transform="translate(-30.337 -31.228)"><path class="a" d="M65.349,51.106v13.6h-7.5V52.082c-.121-2.811-1.354-4.962-4.505-4.5a4.31,4.31,0,0,0-3.4,4.125V64.708h-7.5c.006-.89-.009-1.782,0-2.672.05-6.043.122-12.108.03-18.153-.009-.591.015-1.181-.028-1.768h7.5V45.3c.238-.28.436-.6.672-.889a7.882,7.882,0,0,1,7.421-2.756c4.872.587,7.309,4.762,7.282,9.383Z"/><rect class="a" width="7.499" height="22.592" transform="translate(30.774 42.115)"/><path class="a" d="M34.975,31.228a3.893,3.893,0,0,1,3.79,3.4c.628,5.244-7.355,5.976-8.327,1.412a3.907,3.907,0,0,1,3.779-4.816Z"/></g></svg>