<svg xmlns="http://www.w3.org/2000/svg" width="41.849" height="33.48" viewBox="0 0 41.849 33.48"><defs><style>.a{fill:#8ff5ff;}</style></defs><path class="a" d="M454.253,31.228H424.958a6.284,6.284,0,0,0-6.277,6.277V58.43a6.285,6.285,0,0,0,6.277,6.278h29.295a6.285,6.285,0,0,0,6.277-6.278V37.505A6.284,6.284,0,0,0,454.253,31.228Zm0,4.185a2.084,2.084,0,0,1,1.046.281,2.14,2.14,0,0,0-.209.137l-12.973,9.73a4.206,4.206,0,0,1-5.022,0l-12.974-9.729a1.885,1.885,0,0,0-.209-.138,2.084,2.084,0,0,1,1.046-.281Zm0,25.11H424.958a2.1,2.1,0,0,1-2.092-2.093V40.121l11.718,8.789a8.37,8.37,0,0,0,10.044,0l11.718-8.789V58.43A2.1,2.1,0,0,1,454.253,60.523Z" transform="translate(-418.681 -31.228)"/></svg>