<svg xmlns="http://www.w3.org/2000/svg" xmlns:xlink="http://www.w3.org/1999/xlink" width="1982.468" height="1143.623" viewBox="0 0 1982.468 1143.623"><defs><style>.a{fill:none;stroke:#00fff8;stroke-width:3px;}.b{filter:url(#s);}.c{filter:url(#q);}.d{filter:url(#o);}.e{filter:url(#m);}.f{filter:url(#k);}.g{filter:url(#i);}.h{filter:url(#g);}.i{filter:url(#e);}.j{filter:url(#c);}.k{filter:url(#a);}</style><filter id="a" x="1625.348" y="787" width="336.121" height="336.121" filterUnits="userSpaceOnUse"><feOffset dy="3" input="SourceAlpha"/><feGaussianBlur stdDeviation="3" result="b"/><feFlood flood-color="#00fff8"/><feComposite operator="in" in2="b"/><feComposite in="SourceGraphic"/></filter><filter id="c" x="1279.348" y="838" width="284.121" height="284.121" filterUnits="userSpaceOnUse"><feOffset dy="3" input="SourceAlpha"/><feGaussianBlur stdDeviation="3" result="d"/><feFlood flood-color="#00fff8"/><feComposite operator="in" in2="d"/><feComposite in="SourceGraphic"/></filter><filter id="e" x="1258.348" y="766" width="112.121" height="112.121" filterUnits="userSpaceOnUse"><feOffset dy="3" input="SourceAlpha"/><feGaussianBlur stdDeviation="10" result="f"/><feFlood flood-color="#00fff8"/><feComposite operator="in" in2="f"/><feComposite in="SourceGraphic"/></filter><filter id="g" x="399.091" y="766.498" width="378.118" height="377.125" filterUnits="userSpaceOnUse"><feOffset dy="3" input="SourceAlpha"/><feGaussianBlur stdDeviation="10" result="h"/><feFlood flood-color="#00fff8"/><feComposite operator="in" in2="h"/><feComposite in="SourceGraphic"/></filter><filter id="i" x="0" y="766.498" width="378.118" height="377.125" filterUnits="userSpaceOnUse"><feOffset dy="3" input="SourceAlpha"/><feGaussianBlur stdDeviation="10" result="j"/><feFlood flood-color="#00fff8"/><feComposite operator="in" in2="j"/><feComposite in="SourceGraphic"/></filter><filter id="k" x="0.348" y="0" width="378.121" height="378.121" filterUnits="userSpaceOnUse"><feOffset dy="3" input="SourceAlpha"/><feGaussianBlur stdDeviation="10" result="l"/><feFlood flood-color="#00fff8"/><feComposite operator="in" in2="l"/><feComposite in="SourceGraphic"/></filter><filter id="m" x="373.831" y="1" width="326.121" height="326.121" filterUnits="userSpaceOnUse"><feOffset dy="3" input="SourceAlpha"/><feGaussianBlur stdDeviation="10" result="n"/><feFlood flood-color="#00fff8"/><feComposite operator="in" in2="n"/><feComposite in="SourceGraphic"/></filter><filter id="o" x="587.862" y="266" width="112.121" height="112.121" filterUnits="userSpaceOnUse"><feOffset dy="3" input="SourceAlpha"/><feGaussianBlur stdDeviation="10" result="p"/><feFlood flood-color="#00fff8"/><feComposite operator="in" in2="p"/><feComposite in="SourceGraphic"/></filter><filter id="q" x="1205.264" y="0.498" width="378.118" height="377.125" filterUnits="userSpaceOnUse"><feOffset dy="3" input="SourceAlpha"/><feGaussianBlur stdDeviation="10" result="r"/><feFlood flood-color="#00fff8"/><feComposite operator="in" in2="r"/><feComposite in="SourceGraphic"/></filter><filter id="s" x="1604.35" y="0.498" width="378.118" height="377.125" filterUnits="userSpaceOnUse"><feOffset dy="3" input="SourceAlpha"/><feGaussianBlur stdDeviation="10" result="t"/><feFlood flood-color="#00fff8"/><feComposite operator="in" in2="t"/><feComposite in="SourceGraphic"/></filter></defs><g transform="translate(31.409 -1050.939)"><g class="k" transform="matrix(1, 0, 0, 1, -31.41, 1050.94)"><line class="a" x1="316" y1="316" transform="translate(1635.41 794.06)"/></g><g class="j" transform="matrix(1, 0, 0, 1, -31.41, 1050.94)"><line class="a" x1="264" y1="264" transform="translate(1289.41 845.06)"/></g><g class="i" transform="matrix(1, 0, 0, 1, -31.41, 1050.94)"><line class="a" x1="50" y2="50" transform="translate(1289.41 794.06)"/></g><g class="h" transform="matrix(1, 0, 0, 1, -31.41, 1050.94)"><line class="a" x1="316" y2="315" transform="translate(430.15 794.56)"/></g><g class="g" transform="matrix(1, 0, 0, 1, -31.41, 1050.94)"><line class="a" x1="316" y2="315" transform="translate(31.06 794.56)"/></g><g class="f" transform="matrix(1, 0, 0, 1, -31.41, 1050.94)"><line class="a" x2="316" y2="316" transform="translate(31.41 28.06)"/></g><g class="e" transform="matrix(1, 0, 0, 1, -31.41, 1050.94)"><line class="a" x2="264" y2="264" transform="translate(404.89 29.06)"/></g><g class="d" transform="matrix(1, 0, 0, 1, -31.41, 1050.94)"><line class="a" y1="50" x2="50" transform="translate(618.92 294.06)"/></g><g class="c" transform="matrix(1, 0, 0, 1, -31.41, 1050.94)"><line class="a" y1="315" x2="316" transform="translate(1236.32 28.56)"/></g><g class="b" transform="matrix(1, 0, 0, 1, -31.41, 1050.94)"><line class="a" y1="315" x2="316" transform="translate(1635.41 28.56)"/></g></g></svg>