<svg xmlns="http://www.w3.org/2000/svg" xmlns:xlink="http://www.w3.org/1999/xlink" width="621" height="113" viewBox="0 0 621 113"><defs><style>.a{fill:#fff;}.b{filter:url(#a);}</style><filter id="a" x="0" y="0" width="621" height="113" filterUnits="userSpaceOnUse"><feOffset dy="3" input="SourceAlpha"/><feGaussianBlur stdDeviation="3" result="b"/><feFlood flood-color="#00fff8"/><feComposite operator="in" in2="b"/><feComposite in="SourceGraphic"/></filter></defs><g transform="translate(-51 -6825)"><g class="b" transform="matrix(1, 0, 0, 1, 51, 6825)"><rect class="a" width="603" height="95" rx="16" transform="translate(9 6)"/></g><path class="a" d="M18.813,9.594V29.25L4.063,9.594h-1.5V32H4.188V12.359L18.938,32h1.516V9.594Zm13.781,22.8a8.291,8.291,0,0,0,4.078-.984,6.989,6.989,0,0,0,2.766-2.75v3.359H41V16.172H39.438V19.5a7.492,7.492,0,0,0-2.8-2.7,8.188,8.188,0,0,0-4.062-.984,7.751,7.751,0,0,0-5.8,2.375,8.145,8.145,0,0,0-2.3,5.906,8.244,8.244,0,0,0,2.3,5.938,7.672,7.672,0,0,0,5.781,2.391Zm.141-1.422a6.406,6.406,0,0,1-4.8-1.937,6.7,6.7,0,0,1-1.891-4.891,6.756,6.756,0,0,1,1.875-4.891,6.79,6.79,0,0,1,9.563.031,6.671,6.671,0,0,1,1.969,4.875,6.671,6.671,0,0,1-1.969,4.875,6.419,6.419,0,0,1-4.75,1.984ZM64.359,15.781a6.5,6.5,0,0,0-3.641.984,5.873,5.873,0,0,0-2.2,2.547,5.126,5.126,0,0,0-5.25-3.516,6.087,6.087,0,0,0-3.375.938,6.451,6.451,0,0,0-2.25,2.469V16.156H46.078V32h1.563V23.844a7.167,7.167,0,0,1,1.531-4.75,4.832,4.832,0,0,1,3.875-1.828,3.987,3.987,0,0,1,3.25,1.391A5.844,5.844,0,0,1,57.438,22.5v9.469H59v-8.7a6.319,6.319,0,0,1,1.469-4.328,4.715,4.715,0,0,1,3.7-1.687,4.372,4.372,0,0,1,3.453,1.391,5.617,5.617,0,0,1,1.219,3.844v9.469h1.563V22.359a6.867,6.867,0,0,0-1.641-4.875,5.838,5.838,0,0,0-4.484-1.75ZM82.594,32.391a7.933,7.933,0,0,0,4.641-1.3,8.378,8.378,0,0,0,2.813-3.281l-1.516-.453a6.008,6.008,0,0,1-2.219,2.531,7.162,7.162,0,0,1-8.375-.7,6.421,6.421,0,0,1-1.922-4.562H90.156c.016-.266.031-.594.031-.984a7.909,7.909,0,0,0-2.094-5.625,7.461,7.461,0,0,0-5.719-2.234,7.552,7.552,0,0,0-5.75,2.375,8.292,8.292,0,0,0-2.234,5.906,7.879,7.879,0,0,0,8.234,8.328ZM76,23.2a6.273,6.273,0,0,1,1.938-4.234,6.661,6.661,0,0,1,8.844-.109,6.445,6.445,0,0,1,1.828,4.313Z" transform="translate(80 6860)"/></g></svg>