<svg xmlns="http://www.w3.org/2000/svg" xmlns:xlink="http://www.w3.org/1999/xlink" width="621" height="280" viewBox="0 0 621 280"><defs><style>.a{fill:#fff;}.b{filter:url(#a);}</style><filter id="a" x="0" y="0" width="621" height="280" filterUnits="userSpaceOnUse"><feOffset dy="3" input="SourceAlpha"/><feGaussianBlur stdDeviation="3" result="b"/><feFlood flood-color="#00fff8"/><feComposite operator="in" in2="b"/><feComposite in="SourceGraphic"/></filter></defs><g transform="translate(-51 -7087)"><g class="b" transform="matrix(1, 0, 0, 1, 51, 7087)"><rect class="a" width="603" height="262" rx="16" transform="translate(9 6)"/></g><path class="a" d="M21.8,9.594,12.953,22.172,4.125,9.594H2.563V32H4.188V12.359l8.766,12.531,8.781-12.531V32h1.625V9.594Zm13.844,22.8a7.933,7.933,0,0,0,4.641-1.3,8.378,8.378,0,0,0,2.813-3.281l-1.516-.453a6.008,6.008,0,0,1-2.219,2.531,6.5,6.5,0,0,1-3.687,1.031,6.256,6.256,0,0,1-6.609-6.3H43.2c.016-.266.031-.594.031-.984a7.909,7.909,0,0,0-2.094-5.625,7.461,7.461,0,0,0-5.719-2.234,7.552,7.552,0,0,0-5.75,2.375,8.292,8.292,0,0,0-2.234,5.906,7.879,7.879,0,0,0,8.234,8.328ZM29.047,23.2a6.273,6.273,0,0,1,1.938-4.234,6.081,6.081,0,0,1,4.422-1.734,6.02,6.02,0,0,1,4.422,1.625,6.445,6.445,0,0,1,1.828,4.313Zm23.8,9.188a7.226,7.226,0,0,0,4.469-1.328,4.027,4.027,0,0,0,1.781-3.344q-.023-2.883-3.609-3.937l-4.8-1.437a6.154,6.154,0,0,1-1.922-.891,1.633,1.633,0,0,1-.641-1.359A2.548,2.548,0,0,1,49.2,18.125a4.363,4.363,0,0,1,2.875-.891,6.177,6.177,0,0,1,3.281.844,4.1,4.1,0,0,1,1.828,2.063l1.5-.437a6.375,6.375,0,0,0-2.422-2.828,7.269,7.269,0,0,0-4.125-1.125,6.119,6.119,0,0,0-3.922,1.266,3.741,3.741,0,0,0-1.594,3,2.966,2.966,0,0,0,.984,2.375A7.1,7.1,0,0,0,50.2,23.719l4.734,1.406a4.634,4.634,0,0,1,2.016.984,2.222,2.222,0,0,1,.594,1.641,2.651,2.651,0,0,1-1.312,2.219,5.758,5.758,0,0,1-3.359.906,6.019,6.019,0,0,1-3.516-1.047A4.735,4.735,0,0,1,47.391,27.2l-1.531.406a6.194,6.194,0,0,0,2.547,3.406,7.7,7.7,0,0,0,4.469,1.344Zm15.844,0a7.226,7.226,0,0,0,4.469-1.328,4.027,4.027,0,0,0,1.781-3.344q-.023-2.883-3.609-3.937l-4.8-1.437a6.154,6.154,0,0,1-1.922-.891,1.633,1.633,0,0,1-.641-1.359,2.548,2.548,0,0,1,1.078-1.969,4.363,4.363,0,0,1,2.875-.891,6.177,6.177,0,0,1,3.281.844,4.1,4.1,0,0,1,1.828,2.063l1.5-.437a6.375,6.375,0,0,0-2.422-2.828,7.269,7.269,0,0,0-4.125-1.125,6.119,6.119,0,0,0-3.922,1.266,3.741,3.741,0,0,0-1.594,3,2.966,2.966,0,0,0,.984,2.375,7.1,7.1,0,0,0,2.594,1.328l4.734,1.406a4.634,4.634,0,0,1,2.016.984,2.222,2.222,0,0,1,.594,1.641,2.651,2.651,0,0,1-1.312,2.219,5.758,5.758,0,0,1-3.359.906A6.019,6.019,0,0,1,65.2,29.828,4.735,4.735,0,0,1,63.234,27.2l-1.531.406a6.194,6.194,0,0,0,2.547,3.406,7.7,7.7,0,0,0,4.469,1.344Zm17.281,0a8.291,8.291,0,0,0,4.078-.984,6.989,6.989,0,0,0,2.766-2.75v3.359h1.563V16.172H92.813V19.5a7.492,7.492,0,0,0-2.8-2.7,8.188,8.188,0,0,0-4.062-.984,7.751,7.751,0,0,0-5.8,2.375,8.145,8.145,0,0,0-2.3,5.906,8.244,8.244,0,0,0,2.3,5.938,7.672,7.672,0,0,0,5.781,2.391Zm.141-1.422a6.406,6.406,0,0,1-4.8-1.937,6.7,6.7,0,0,1-1.891-4.891A6.756,6.756,0,0,1,81.3,19.25a6.79,6.79,0,0,1,9.563.031,6.671,6.671,0,0,1,1.969,4.875,6.671,6.671,0,0,1-1.969,4.875,6.419,6.419,0,0,1-4.75,1.984Zm27.281-14.812V19.2a7.178,7.178,0,0,0-2.8-2.531,8.694,8.694,0,0,0-4.062-.906,7.866,7.866,0,0,0-5.8,2.3,7.762,7.762,0,0,0-2.3,5.719,7.852,7.852,0,0,0,8.078,8.047,8.825,8.825,0,0,0,4.094-.906,6.782,6.782,0,0,0,2.766-2.531v3.125a6.352,6.352,0,0,1-1.734,4.391,5.884,5.884,0,0,1-4.453,1.734,6.418,6.418,0,0,1-6.016-3.219l-1.437.531a7.9,7.9,0,0,0,7.453,4.172,7.536,7.536,0,0,0,5.563-2.156,7.383,7.383,0,0,0,2.156-5.453V16.188Zm-6.734,14.25a6.537,6.537,0,0,1-4.8-1.875,6.313,6.313,0,0,1-1.891-4.687,6.36,6.36,0,0,1,1.875-4.687,6.523,6.523,0,0,1,4.813-1.875,6.594,6.594,0,0,1,4.75,1.906,6.454,6.454,0,0,1,0,9.281,6.594,6.594,0,0,1-4.75,1.906Zm20.578,1.984a7.933,7.933,0,0,0,4.641-1.3,8.378,8.378,0,0,0,2.813-3.281l-1.516-.453a6.008,6.008,0,0,1-2.219,2.531,7.162,7.162,0,0,1-8.375-.7,6.421,6.421,0,0,1-1.922-4.562H134.8c.016-.266.031-.594.031-.984a7.909,7.909,0,0,0-2.094-5.625,7.461,7.461,0,0,0-5.719-2.234,7.552,7.552,0,0,0-5.75,2.375,8.292,8.292,0,0,0-2.234,5.906,7.879,7.879,0,0,0,8.234,8.328ZM120.641,23.2a6.273,6.273,0,0,1,1.938-4.234,6.661,6.661,0,0,1,8.844-.109,6.445,6.445,0,0,1,1.828,4.313Z" transform="translate(80 7111)"/></g></svg>