<svg xmlns="http://www.w3.org/2000/svg" width="594.032" height="591.047" viewBox="0 0 594.032 591.047"><defs><style>.a{fill:#fff;}</style></defs><g transform="matrix(0.017, -1, 1, 0.017, 296.995, 295.447)"><g transform="translate(-295.291 -296.876)"><g transform="translate(0)"><path class="a" d="M364.886,573.069a7.05,7.05,0,0,1-3.552-1.544,6.306,6.306,0,0,1-2.017-3.233,6.436,6.436,0,0,1,.8-5.624,9.467,9.467,0,0,1,5.522-3.551l12.239-3.42,6.782,24.273-11.578,3.235a9.2,9.2,0,0,1-6.29-.177,6.043,6.043,0,0,1-3.539-4.047,5.574,5.574,0,0,1,1.6-5.9Zm1.925-9.827a3.822,3.822,0,0,0-2.339,1.621,3.084,3.084,0,0,0-.326,2.555,3.021,3.021,0,0,0,1.589,1.964,3.812,3.812,0,0,0,2.836.157l7.583-2.119-1.76-6.3-7.549,2.11Zm12.068,13.927-1.675-5.991-6.991,1.953a3.384,3.384,0,0,0-2.123,1.543,2.958,2.958,0,0,0-.287,2.433,2.824,2.824,0,0,0,1.527,1.873,3.56,3.56,0,0,0,2.664.132Z"/><path class="a" d="M346.41,572.5l5.27-.977-1.609-8.672,4.82-.894,4.594,24.773-12.058,2.236a8.213,8.213,0,0,1-6.606-1.313,8.074,8.074,0,0,1,.638-13.717l-7.849-8.015,5.6-1.038Zm6.075,3.27-6.928,1.284a4.186,4.186,0,0,0-2.769,1.64,3.637,3.637,0,0,0-.641,2.906,3.6,3.6,0,0,0,1.593,2.421,3.921,3.921,0,0,0,3.017.566l7.1-1.316Z"/><path class="a" d="M315.791,573.148l11.29-1.062,1.57-5.64,5.094-.479-7.247,26-6.389.6L308.1,568.38l5.128-.483Zm2.054,4.186,5.024,10.229,3.01-10.984Z"/><path class="a" d="M285.39,593.752,285,568.545l4.06-.063,12.929,16.185-.254-16.383,4.939-.076.392,25.207-4.078.064-12.911-16.151.255,16.347Z"/><path class="a" d="M268.48,592.378a11.441,11.441,0,0,1-8.4-4.274,14.2,14.2,0,0,1,1.626-18.114,11.4,11.4,0,0,1,9.035-2.727l10.9.989-2.278,25.1-10.9-.989Zm2-20.657a6.549,6.549,0,0,0-5.4,1.8,8.806,8.806,0,0,0-2.515,5.754,8.514,8.514,0,0,0,1.431,6.005,6.613,6.613,0,0,0,5,2.694l5.915.537,1.473-16.241-5.915-.536Z"/><path class="a" d="M252.077,590.432l-4.948-.77,3.874-24.9,4.948.769Z"/><path class="a" d="M220.558,584.24l5.449-24.611,3.965.878,8.832,18.735,3.542-15.995,4.823,1.067-5.449,24.611-3.983-.881-8.822-18.7-3.534,15.961Z"/><path class="a" d="M195.218,561.825a11.326,11.326,0,0,1,6.052-7.117,12.908,12.908,0,0,1,9.788-.287,13.119,13.119,0,0,1,7.965,6.571,13.371,13.371,0,0,1-5.807,17.761,12.8,12.8,0,0,1-10.108.644,13.187,13.187,0,0,1-6.587-4.454,11.457,11.457,0,0,1-2.483-6.643l4.747.189q.673,4.8,5.758,6.476a7.777,7.777,0,0,0,6.39-.476,8.348,8.348,0,0,0,4.062-4.939,8.315,8.315,0,0,0-5.7-10.879,7.629,7.629,0,0,0-5.265-.025,6.212,6.212,0,0,0-3.437,3.147l7.366,2.416-1.325,4.042-12.227-4.01Z"/></g><g transform="translate(0)"><path class="a" d="M271.278,4.136l1.743,14.77a10.862,10.862,0,0,1-1.941,8.159q-2.5,3.3-7.613,3.89-5.158.608-8.324-1.993a10.9,10.9,0,0,1-3.753-7.5l-1.742-14.77,4.976-.587,1.733,14.7a6.761,6.761,0,0,0,2.061,4.413,5.5,5.5,0,0,0,4.533,1.218,5.569,5.569,0,0,0,4.178-2.246,6.759,6.759,0,0,0,.978-4.77l-1.734-14.7Z"/><path class="a" d="M276.536,3.961l5-.273,1.378,25.164-5,.273Z"/><path class="a" d="M299.63.059,303.41,0,289.648,31.933l-3.78.059Z"/><path class="a" d="M329.58,5.133l-1.163,14.832a10.861,10.861,0,0,1-3.491,7.628c-2.066,1.832-4.808,2.6-8.226,2.336q-5.181-.406-7.781-3.573a10.9,10.9,0,0,1-2.223-8.094l1.162-14.831,5,.392L311.7,18.583a6.775,6.775,0,0,0,1.164,4.731,5.509,5.509,0,0,0,4.212,2.076A5.57,5.57,0,0,0,321.609,24a6.765,6.765,0,0,0,1.887-4.492l1.157-14.761Z"/><path class="a" d="M346.98,33.445l-4.831-9.908-7.821,7.769-5.892-1,11.073-10.981L332.863,5.495l5.893,1,4.635,9.7,7.566-7.634,5.858.991-10.79,10.886,6.8,14Z"/></g><g transform="translate(0)"><path class="a" d="M35.8,439.659l21.587-13.022,2.552,4.231-14.21,8.571,13.678,1.132-5.388,12.613,14.21-8.572,2.552,4.229L49.193,461.863l-2.434-4.035,5.948-13.216-14.465-.9Z"/><path class="a" d="M23.844,414.867,37.288,408.5a10.86,10.86,0,0,1,8.353-.764q3.924,1.323,6.116,5.974,2.223,4.7.768,8.527a10.9,10.9,0,0,1-5.916,5.952l-13.444,6.365-2.143-4.529,13.38-6.335a6.758,6.758,0,0,0,3.525-3.361,5.5,5.5,0,0,0-.293-4.685,5.571,5.571,0,0,0-3.462-3.245,6.759,6.759,0,0,0-4.834.6l-13.38,6.334Z"/><path class="a" d="M35,386.09l4.245-1.594,6.15,16.372L21.8,409.73l-1.737-4.624,19.35-7.267Z"/><path class="a" d="M13.973,372.447l2.451,8.09,19.847-6.014L37.7,379.25l-19.847,6.013,2.451,8.091-4.272,1.294L9.7,373.741Z"/><path class="a" d="M8.979,370.208,7.8,365.335l24.512-5.906,1.174,4.871Z"/><path class="a" d="M4.543,349.236a11.443,11.443,0,0,1,1.95-9.224,12.79,12.79,0,0,1,8.425-4.816,12.763,12.763,0,0,1,9.5,1.689,11.4,11.4,0,0,1,4.978,8.022L31.268,355.7l-24.839,4.31L4.557,349.216Zm20.477-3.427a6.549,6.549,0,0,0-3.144-4.754,8.812,8.812,0,0,0-6.212-.939,8.516,8.516,0,0,0-5.431,2.941,6.621,6.621,0,0,0-1.308,5.526l1.016,5.855,16.074-2.789L25,345.794Z"/><path class="a" d="M2.2,332.9l-.535-4.979,25.056-2.691.535,4.98Z"/><path class="a" d="M26.28,311.114a12.321,12.321,0,0,1-1.859,7.518,11.439,11.439,0,0,1-5.226,4.474l-1.648-4.656a7.16,7.16,0,0,0,3.262-2.849,7.729,7.729,0,0,0,1.1-4.577,5.9,5.9,0,0,0-1.114-3.432,2.7,2.7,0,0,0-2.294-1.229,2.333,2.333,0,0,0-1.7.838,6.487,6.487,0,0,0-1.176,2.644L13.91,316.37a9.53,9.53,0,0,1-2.26,4.3,5.444,5.444,0,0,1-3.9,1.718,6.314,6.314,0,0,1-5.216-2.322A9.9,9.9,0,0,1,.122,313.7a12.585,12.585,0,0,1,1.517-6.938,9.56,9.56,0,0,1,4.41-4.224L7.6,307.06a6,6,0,0,0-2.376,2.577,7.413,7.413,0,0,0-.771,3.787,4.981,4.981,0,0,0,.93,2.878,2.308,2.308,0,0,0,1.986,1.031c1.106-.052,1.858-.9,2.256-2.519l1.722-6.349a13.617,13.617,0,0,1,2.288-5.162,5.521,5.521,0,0,1,4.29-1.948,6.9,6.9,0,0,1,5.683,2.528,11.175,11.175,0,0,1,2.613,7.146Z"/><path class="a" d="M26.2,286.816a12.858,12.858,0,0,1-13.677,12.67,12.607,12.607,0,0,1-9.155-4.139,12.787,12.787,0,0,1-3.357-9.531,12.919,12.919,0,0,1,2.75-7.892,11.117,11.117,0,0,1,5.915-3.962l.979,4.877a6.631,6.631,0,0,0-3.462,2.5,8.053,8.053,0,0,0-1.562,4.651,7.6,7.6,0,0,0,2.2,5.984,8.523,8.523,0,0,0,5.861,2.491,8.66,8.66,0,0,0,6.117-2.02,7.535,7.535,0,0,0,2.733-5.763,8.22,8.22,0,0,0-1.159-4.78,6.475,6.475,0,0,0-3.212-2.77L18.6,274.4a10.694,10.694,0,0,1,5.521,4.377,12.837,12.837,0,0,1,2.066,7.983Z"/><path class="a" d="M1.612,269.423l.531-4.983,25.074,2.67-.531,4.984Z"/><path class="a" d="M4.617,247.432a8.134,8.134,0,0,1,3.7-5.821,8.84,8.84,0,0,1,12,2,8.444,8.444,0,0,1,1.532,6.868l-1.1,6.609,7.6,1.264-.8,4.839L2.667,259.051l1.939-11.657Zm12.839,2.545a4.1,4.1,0,0,0-.77-3.3,4.26,4.26,0,0,0-2.767-1.69,4.365,4.365,0,0,0-3.157.652A3.755,3.755,0,0,0,9,248.3l-1.111,6.678,8.535,1.42,1.073-6.453Z"/><path class="a" d="M31.274,222.845l4.4,1.1-4.221,16.97L7,234.826l1.192-4.792,20.057,4.989Z"/><path class="a" d="M12.409,214.207l1.47-4.791,24.106,7.4L36.516,221.6Z"/><path class="a" d="M23.079,183.868l23.58,8.927-1.438,3.8-19.814,6.053,15.325,5.8-1.749,4.621L15.4,204.143l1.444-3.816,19.775-6.049-15.292-5.79Z"/><path class="a" d="M50.331,172.5l-4.979,10.182,3.99,4.279L47.1,191.551,28.7,171.814l2.818-5.762,26.891,2.373-2.262,4.625Zm-4.64-.431-11.342-1.047,7.8,8.293Z"/><path class="a" d="M56.956,153.986l-2.783,4.582,7.541,4.58-2.545,4.191L37.628,154.256l6.367-10.485a8.225,8.225,0,0,1,5.382-4.052,8.077,8.077,0,0,1,9.807,9.616l11.209-.512-2.955,4.867Zm-6.487,2.353,3.658-6.024a4.183,4.183,0,0,0,.623-3.158,3.778,3.778,0,0,0-4.609-2.841,3.925,3.925,0,0,0-2.433,1.874l-3.75,6.174Z"/><path class="a" d="M63.4,115.581l7.321,17.088,7.483,5.433-2.944,4.055-7.483-5.433L49.234,135.1l3.285-4.524L65.4,131.891l-5.251-11.829Z"/></g><g transform="translate(0)"><path class="a" d="M571.211,193.469l1.744,4.7-23.64,8.774-1.744-4.7Z"/><path class="a" d="M582.3,228.243,558.1,235.288l-1.381-4.744,15.935-4.638-12.93-4.6,8.445-10.808-15.935,4.638-1.381-4.743,24.207-7.046,1.317,4.524-9.141,11.248,13.749,4.587Z"/><path class="a" d="M588.173,259.663l-24.818,4.376-.857-4.864,16.337-2.88-12.349-5.978,9.563-9.822-16.337,2.88-.857-4.864,24.817-4.375.818,4.638-10.3,10.185,13.165,6.049Z"/><path class="a" d="M584.677,270.691l-5.746.465.96,11.86-4.31.349-.96-11.86-6.166.5,1.106,13.664-4.45.361-1.5-18.483,25.121-2.033,1.5,18.517-4.449.36Z"/><path class="a" d="M574.021,299.22l.093-5.362-8.824-.153.085-4.9,25.207.439-.214,12.269a8.225,8.225,0,0,1-2.6,6.215,8.079,8.079,0,0,1-13.322-3.362l-9.425,6.1.1-5.7Zm4.417-5.3-.122,7.048a4.187,4.187,0,0,0,1.054,3.043,3.642,3.642,0,0,0,2.722,1.208,3.6,3.6,0,0,0,2.692-1.079,3.923,3.923,0,0,0,1.157-2.845l.126-7.225Z"/><path class="a" d="M563.6,322.418a12.323,12.323,0,0,1,2.845-7.2,11.449,11.449,0,0,1,5.775-3.737l1.012,4.834a7.148,7.148,0,0,0-3.612,2.389,7.74,7.74,0,0,0-1.7,4.388,5.906,5.906,0,0,0,.646,3.55,2.7,2.7,0,0,0,2.11,1.523,2.34,2.34,0,0,0,1.8-.6A6.5,6.5,0,0,0,574,325.1l2.567-6.237a9.536,9.536,0,0,1,2.812-3.957,5.446,5.446,0,0,1,4.09-1.182,6.316,6.316,0,0,1,4.859,2.995,9.911,9.911,0,0,1,1.546,6.628,12.574,12.574,0,0,1-2.429,6.672,9.563,9.563,0,0,1-4.934,3.6l-.936-4.686a6,6,0,0,0,2.7-2.238,7.409,7.409,0,0,0,1.267-3.648,4.971,4.971,0,0,0-.537-2.976,2.308,2.308,0,0,0-1.83-1.288c-1.1-.1-1.961.643-2.572,2.2l-2.552,6.062a13.628,13.628,0,0,1-2.956,4.809,5.516,5.516,0,0,1-4.511,1.358,6.9,6.9,0,0,1-5.295-3.263,11.175,11.175,0,0,1-1.635-7.429Z"/><path class="a" d="M587.659,339.115l-.726,4.957-24.941-3.655.726-4.957Z"/><path class="a" d="M581.438,372.083l-22.6-14.922,1.118-5.3,26.708-4.506-1.123,5.313-20.023,3.134,17.045,10.965Z"/><path class="a" d="M574.722,378.893l-5.518-1.672-3.451,11.392-4.139-1.254,3.45-11.392-5.922-1.794L555.166,387.3l-4.274-1.3,5.378-17.751,24.128,7.309-5.387,17.784-4.274-1.294Z"/></g><circle class="a" cx="9.531" cy="9.531" r="9.531" transform="translate(141.885 45.587)"/><circle class="a" cx="9.531" cy="9.531" r="9.531" transform="translate(480.46 84.104)"/><circle class="a" cx="9.531" cy="9.531" r="9.531" transform="translate(490.629 483.823)"/><circle class="a" cx="9.531" cy="9.531" r="9.531" transform="translate(107.594 507.869)"/></g></g></svg>