<svg xmlns="http://www.w3.org/2000/svg" width="55.186" height="40.346" viewBox="0 0 55.186 40.346"><defs><style>.a{fill:#fff;}</style></defs><path class="a" d="M55.186,0,43.341,11.845l-8.329,8.327-7.418,7.421-7.052,7.05,0,0-5.7,5.7H0L20.174,20.174l7.418-7.421L40.346,0Z"/><path class="a" d="M80.74,115.51l7.052-7.05-7.05,7.052Z" transform="translate(-60.199 -80.867)"/><path class="a" d="M124.208,46.56l-8.327,8.329-7.421,7.418,7.418-7.421Z" transform="translate(-80.867 -34.715)"/><path class="a" d="M24.732,9.889,17.31,17.31,0,0H14.842Z"/><path class="a" d="M86.711,50.13l-7.418,7.421,0,0Z" transform="translate(-59.118 -37.377)"/><path class="a" d="M115.881,79.292l-7.421,7.418,7.418-7.421Z" transform="translate(-80.867 -59.118)"/><path class="a" d="M144.368,107.787H129.528l-9.916-9.916,7.421-7.419Z" transform="translate(-89.182 -67.441)"/><path class="a" d="M87.792,108.46l-7.05,7.052,0,0Z" transform="translate(-60.199 -80.867)"/><path class="a" d="M124.208,46.56l-8.327,8.329-7.421,7.418,7.418-7.421Z" transform="translate(-80.867 -34.715)"/></svg>