<svg xmlns="http://www.w3.org/2000/svg" xmlns:xlink="http://www.w3.org/1999/xlink" width="837.484" height="855.534" viewBox="0 0 837.484 855.534"><defs><style>.a{fill:#fff;}.b{filter:url(#s);}.b,.c,.d,.e,.f,.g,.h,.i,.j,.k{mix-blend-mode:soft-light;isolation:isolate;}.c{filter:url(#q);}.d{filter:url(#o);}.e{filter:url(#m);}.f{filter:url(#k);}.g{filter:url(#i);}.h{filter:url(#g);}.i{filter:url(#e);}.j{filter:url(#c);}.k{filter:url(#a);}</style><filter id="a" x="387.121" y="0" width="57.816" height="48.534" filterUnits="userSpaceOnUse"><feOffset dy="3" input="SourceAlpha"/><feGaussianBlur stdDeviation="3" result="b"/><feFlood flood-color="#191919"/><feComposite operator="in" in2="b"/><feComposite in="SourceGraphic"/></filter><filter id="c" x="618.784" y="65.74" width="74.49" height="49.794" filterUnits="userSpaceOnUse"><feOffset dy="3" input="SourceAlpha"/><feGaussianBlur stdDeviation="3" result="d"/><feFlood flood-color="#191919"/><feComposite operator="in" in2="d"/><feComposite in="SourceGraphic"/></filter><filter id="e" x="3.57" y="520.184" width="59.244" height="46.35" filterUnits="userSpaceOnUse"><feOffset dy="3" input="SourceAlpha"/><feGaussianBlur stdDeviation="3" result="f"/><feFlood flood-color="#191919"/><feComposite operator="in" in2="f"/><feComposite in="SourceGraphic"/></filter><filter id="g" x="150.153" y="719.74" width="52.398" height="49.794" filterUnits="userSpaceOnUse"><feOffset dy="3" input="SourceAlpha"/><feGaussianBlur stdDeviation="3" result="h"/><feFlood flood-color="#191919"/><feComposite operator="in" in2="h"/><feComposite in="SourceGraphic"/></filter><filter id="i" x="772.003" y="276.184" width="60.588" height="46.35" filterUnits="userSpaceOnUse"><feOffset dy="3" input="SourceAlpha"/><feGaussianBlur stdDeviation="3" result="j"/><feFlood flood-color="#191919"/><feComposite operator="in" in2="j"/><feComposite in="SourceGraphic"/></filter><filter id="k" x="0" y="265.184" width="65.712" height="46.35" filterUnits="userSpaceOnUse"><feOffset dy="3" input="SourceAlpha"/><feGaussianBlur stdDeviation="3" result="l"/><feFlood flood-color="#191919"/><feComposite operator="in" in2="l"/><feComposite in="SourceGraphic"/></filter><filter id="m" x="763.456" y="515.68" width="74.028" height="46.854" filterUnits="userSpaceOnUse"><feOffset dy="3" input="SourceAlpha"/><feGaussianBlur stdDeviation="3" result="n"/><feFlood flood-color="#191919"/><feComposite operator="in" in2="n"/><feComposite in="SourceGraphic"/></filter><filter id="o" x="617.406" y="718.68" width="75.33" height="46.854" filterUnits="userSpaceOnUse"><feOffset dy="3" input="SourceAlpha"/><feGaussianBlur stdDeviation="3" result="p"/><feFlood flood-color="#191919"/><feComposite operator="in" in2="p"/><feComposite in="SourceGraphic"/></filter><filter id="q" x="384.516" y="790.534" width="64.378" height="65" filterUnits="userSpaceOnUse"><feOffset dy="3" input="SourceAlpha"/><feGaussianBlur stdDeviation="3" result="r"/><feFlood flood-color="#191919"/><feComposite operator="in" in2="r"/><feComposite in="SourceGraphic"/></filter><filter id="s" x="133.904" y="60.103" width="75.066" height="64.431" filterUnits="userSpaceOnUse"><feOffset dy="3" input="SourceAlpha"/><feGaussianBlur stdDeviation="3" result="t"/><feFlood flood-color="#191919"/><feComposite operator="in" in2="t"/><feComposite in="SourceGraphic"/></filter></defs><g transform="translate(-543.295 -3363.466)"><g class="k" transform="matrix(1, 0, 0, 1, 543.29, 3363.47)"><path class="a" d="M18.864,16.194a1.433,1.433,0,0,1,1.428-.966,1.35,1.35,0,0,1,1.386.966L30.288,39h5.5L26.214,13.8c-1.008-2.646-2.94-3.654-5.88-3.654-2.982,0-4.914,1.008-5.964,3.654L4.416,39h5.46Zm20.874.63V39H44.19V16.824Zm0-8.358v5.166h4.494V8.466Z" transform="translate(391.71 -2.47)"/></g><g class="j" transform="matrix(1, 0, 0, 1, 543.29, 3363.47)"><path class="a" d="M2.255,10.65,13.763,24.216,1.079,39H7.211l9.66-11.256L26.279,39h6.048L20.105,24.594,32.243,10.65H26.111L17,21.108,8.3,10.65Zm50.82-3.444v9.618H43.289c-5.922,0-9.618,3.612-9.618,11.088S37.367,39,43.289,39h6.132c5.292,0,8.148-3.108,8.148-9.492V7.206ZM48.119,34.674h-4.41c-3.822,0-5.544-1.974-5.544-6.762s1.722-6.8,5.544-6.8h9.366V29.3C53.075,33.078,51.689,34.674,48.119,34.674Z" transform="translate(626.71 64.53)"/></g><g class="i" transform="matrix(1, 0, 0, 1, 543.29, 3363.47)"><path class="a" d="M5.865,10.65V29.214c0,5.67,2.94,9.786,10.458,9.786h11.3V34.044h-11c-4.452,0-5.8-2.142-5.8-4.872V10.65ZM38,16.824c-4.368,0-6.006,2.016-6.006,6.468V39h4.452V23.964c0-1.932.882-2.856,2.856-2.856h7.812V16.824Z" transform="translate(6.71 515.53)"/></g><g class="h" transform="matrix(1, 0, 0, 1, 543.29, 3363.47)"><path class="a" d="M8.448,10.65V39H13.4V10.65Zm29.9-3.444v9.618H28.566c-5.922,0-9.618,3.612-9.618,11.088S22.644,39,28.566,39H34.7c5.292,0,8.148-3.108,8.148-9.492V7.206ZM33.4,34.674h-4.41c-3.822,0-5.544-1.974-5.544-6.762s1.722-6.8,5.544-6.8h9.366V29.3C38.352,33.078,36.966,34.674,33.4,34.674Z" transform="translate(150.71 718.53)"/></g><g class="g" transform="matrix(1, 0, 0, 1, 543.29, 3363.47)"><path class="a" d="M5.3,10.65v4.956H20.04a3.56,3.56,0,0,1,3.906,3.78A3.66,3.66,0,0,1,20,23.292H9.792c-3.108,0-4.452,1.3-4.452,4.494V39H10.3V28.752a.625.625,0,0,1,.714-.714h8.82c6.636,0,9.114-4.62,9.114-8.9,0-4.536-2.73-8.484-9.114-8.484Zm33.474,6.174c-4.368,0-6.006,2.016-6.006,6.468V39h4.452V23.964c0-1.932.882-2.856,2.856-2.856h7.812V16.824Z" transform="translate(775.71 271.53)"/></g><g class="f" transform="matrix(1, 0, 0, 1, 543.29, 3363.47)"><path class="a" d="M12.3,10.65v4.956H27.037a3.56,3.56,0,0,1,3.906,3.78A3.66,3.66,0,0,1,27,23.292H16.789c-3.108,0-4.452,1.3-4.452,4.494V39h4.956V28.752a.625.625,0,0,1,.714-.714h8.82c6.636,0,9.114-4.62,9.114-8.9,0-4.536-2.73-8.484-9.114-8.484Zm34.524,6.174c-5.166,0-7.224,2.478-7.224,6.468,0,3.4,1.512,6.468,7.644,6.468h5.25c2.226,0,3.15.714,3.15,2.478,0,1.722-.84,2.436-2.9,2.436H39.847V39H52.741c5.208,0,7.266-2.772,7.266-6.72,0-3.444-1.554-6.258-7.686-6.258H47.113c-2.478,0-3.15-.84-3.15-2.394,0-1.68.84-2.52,2.9-2.52H59.125V16.824Z" transform="translate(-3.29 260.53)"/></g><g class="e" transform="matrix(1, 0, 0, 1, 543.29, 3363.47)"><path class="a" d="M16.2,16.194a1.433,1.433,0,0,1,1.428-.966,1.35,1.35,0,0,1,1.386.966L27.623,39h5.5L23.549,13.8c-1.008-2.646-2.94-3.654-5.88-3.654-2.982,0-4.914,1.008-5.964,3.654L1.751,39h5.46Zm26.922.63c-5.544,0-7.728,3.108-7.728,7.308v7.56c0,4.2,2.184,7.308,7.728,7.308H56.687V34.674H43.121c-2.436,0-3.4-1.3-3.4-3.066v-1.6H50.261c5.46,0,7.518-2.31,7.518-6.384,0-4.284-2.226-6.8-7.476-6.8Zm-3.4,7.35c0-1.722.966-3.066,3.4-3.066h7.14c2.184,0,3.15,1.092,3.15,2.772,0,1.638-.882,2.646-3.276,2.646H39.719Z" transform="translate(770.71 511.53)"/></g><g class="d" transform="matrix(1, 0, 0, 1, 543.29, 3363.47)"><path class="a" d="M20.149,16.194a1.433,1.433,0,0,1,1.428-.966,1.35,1.35,0,0,1,1.386.966L31.573,39h5.5L27.5,13.8c-1.008-2.646-2.94-3.654-5.88-3.654-2.982,0-4.914,1.008-5.964,3.654L5.7,39h5.46Zm19.53.63v13.44C39.679,35.388,42.955,39,49.3,39h4.116c6.342,0,9.618-3.612,9.618-8.736V16.824H58.663V30.1c0,2.6-1.89,4.578-5.418,4.578H49.633c-3.528,0-5.46-1.974-5.46-4.578V16.824Z" transform="translate(620.71 714.53)"/></g><g class="c" transform="matrix(1, 0, 0, 1, 543.29, 3363.47)"><path class="a" d="M45.449,19.236a11.708,11.708,0,0,0-1.006-9.618A11.842,11.842,0,0,0,31.688,3.937,11.713,11.713,0,0,0,22.856,0a11.844,11.844,0,0,0-11.3,8.2,11.714,11.714,0,0,0-7.83,5.68A11.846,11.846,0,0,0,5.186,27.763a11.708,11.708,0,0,0,1.006,9.618,11.842,11.842,0,0,0,12.755,5.681A11.7,11.7,0,0,0,27.779,47a11.845,11.845,0,0,0,11.3-8.2,11.714,11.714,0,0,0,7.83-5.68,11.846,11.846,0,0,0-1.46-13.882ZM27.782,43.928a8.779,8.779,0,0,1-5.639-2.039c.072-.038.2-.107.278-.157l9.359-5.405a1.522,1.522,0,0,0,.77-1.332V21.8l3.955,2.284a.138.138,0,0,1,.076.109V35.119a8.819,8.819,0,0,1-8.8,8.808ZM8.858,35.845a8.77,8.77,0,0,1-1.05-5.9c.069.041.191.116.278.166l9.359,5.405a1.524,1.524,0,0,0,1.538,0l11.426-6.6v4.568a.146.146,0,0,1-.056.122l-9.461,5.462A8.819,8.819,0,0,1,8.86,35.845ZM6.4,15.415a8.779,8.779,0,0,1,4.584-3.861c0,.081,0,.223,0,.323V22.689a1.523,1.523,0,0,0,.768,1.331l11.426,6.6L19.213,32.9a.14.14,0,0,1-.134.012L9.618,27.445A8.819,8.819,0,0,1,6.394,15.417Zm32.5,7.563-11.426-6.6L31.424,14.1a.14.14,0,0,1,.134-.012l9.462,5.462a8.81,8.81,0,0,1-1.36,15.9V24.309a1.52,1.52,0,0,0-.764-1.331Zm3.936-5.925c-.069-.043-.191-.116-.278-.166l-9.359-5.405a1.524,1.524,0,0,0-1.538,0L20.23,18.08V13.512a.146.146,0,0,1,.056-.122l9.461-5.458a8.808,8.808,0,0,1,13.081,9.121ZM18.08,25.195l-3.957-2.284a.139.139,0,0,1-.076-.109V11.875A8.81,8.81,0,0,1,28.492,5.11c-.072.038-.2.107-.278.157l-9.359,5.405A1.519,1.519,0,0,0,18.085,12L18.08,25.192Zm2.149-4.633,5.089-2.939,5.089,2.938v5.877l-5.089,2.938-5.089-2.938Z" transform="translate(391.39 796.54)"/></g><g class="b" transform="matrix(1, 0, 0, 1, 543.29, 3363.47)"><path class="a" d="M57.4,73.974a17.038,17.038,0,0,0-2.426-6.64A18.539,18.539,0,0,0,50.73,62.6l0,0-17.89-13.74a.509.509,0,0,0-.04-.032,3.734,3.734,0,0,0-2.267-.706,4.125,4.125,0,0,0-2.355.708,2.387,2.387,0,0,0-1.127,1.827,2.159,2.159,0,0,0,.867,1.746c1.151.908,2.3,1.837,3.451,2.766,1.116.9,2.267,1.832,3.412,2.736l-21.912-.015c-2.506,0-4.212,1.177-4.563,3.147a3.158,3.158,0,0,0,.726,2.538,3.374,3.374,0,0,0,2.639,1.2h1.67c2.308,0,4.625-.006,6.94-.011l2.207-.005L2.6,79.466l-.079.058A5.03,5.03,0,0,0,.531,82.8a3.243,3.243,0,0,0,.629,2.463,3.418,3.418,0,0,0,2.779,1.256A5.268,5.268,0,0,0,7.215,85.3L17.954,76.51a14.272,14.272,0,0,0-.1,1.516,14.315,14.315,0,0,0,.612,3.354,17.607,17.607,0,0,0,3.8,6.585,19.635,19.635,0,0,0,6.645,4.771,21.349,21.349,0,0,0,8.692,1.814h.028A21.4,21.4,0,0,0,46.36,92.7,19.751,19.751,0,0,0,53,87.914a17.742,17.742,0,0,0,3.8-6.6,16.564,16.564,0,0,0,.6-7.343ZM37.835,85.584c-6.716,0-12.163-4.872-12.163-10.882S31.119,63.82,37.835,63.82,50,68.692,50,74.7,44.551,85.584,37.835,85.584Zm7.014-11.839a6.072,6.072,0,0,1-1.876,4.692,7.5,7.5,0,0,1-10.3,0A6.073,6.073,0,0,1,30.8,73.747a6.186,6.186,0,0,1,2.227-4.37,7.532,7.532,0,0,1,9.592,0,6.187,6.187,0,0,1,2.229,4.368Z" transform="translate(142.4 17.98)"/></g></g></svg>